<?xml version="1.0" encoding="iso-8859-1"?>
<!-- Generator: Adobe Illustrator 18.0.0, SVG Export Plug-In . SVG Version: 6.00 Build 0)  -->
<!DOCTYPE svg PUBLIC "-//W3C//DTD SVG 1.1//EN" "http://www.w3.org/Graphics/SVG/1.1/DTD/svg11.dtd">
<svg version="1.1" id="Capa_1" xmlns="http://www.w3.org/2000/svg" xmlns:xlink="http://www.w3.org/1999/xlink" x="0px" y="0px"
	 viewBox="0 0 305 305" style="enable-background:new 0 0 305 305;" xml:space="preserve">
<g>
	<path d="M264.165,211.642c-16.094,5.685-31.004-12.144-34.425-40.268l-0.493,0.166c0.887,28.914-10.561,55.934-26.619,61.605
		c-16.241,5.737-31.275-12.465-34.517-41.031l-15.61,5.253l-15.612-5.254c-3.241,28.566-18.274,46.769-34.517,41.031
		c-16.057-5.671-27.506-32.691-26.618-61.605l-0.495-0.167c-3.421,28.124-18.331,45.953-34.425,40.268
		c-15.911-5.621-27.302-32.203-26.644-60.819l-7.18-2.417v105.971c0,1.073,0.685,2.027,1.703,2.37l142.99,48.122
		c0.259,0.087,0.528,0.13,0.797,0.13c0.27,0,0.539-0.044,0.797-0.13l142.989-48.122c1.017-0.343,1.702-1.296,1.702-2.37V148.406
		l-7.18,2.416C291.469,179.44,280.076,206.021,264.165,211.642z"/>
	<path d="M41.475,183.534c10.222,3.612,19.954-2.435,26.472-14.62l-49.116-16.529C23.251,167.968,31.445,179.992,41.475,183.534z"/>
	<path d="M103.013,205.039c10.408,3.677,20.309-2.663,26.824-15.297L80.119,173.01C84.479,189.021,92.795,201.43,103.013,205.039z"
		/>
	<path d="M263.526,183.534c10.03-3.542,18.225-15.566,22.645-31.15l-49.117,16.53C243.57,181.099,253.303,187.146,263.526,183.534z"
		/>
	<path d="M201.989,205.039c10.217-3.608,18.531-16.018,22.892-32.029l-49.717,16.732
		C181.681,202.376,191.581,208.716,201.989,205.039z"/>
	<path d="M152.501,160.667l145.488-48.96V55.082c0.047-0.187,0.079-0.378,0.082-0.576c0.013-1.062-0.647-2.017-1.646-2.379
		L153.354,0.15c-0.551-0.2-1.156-0.2-1.707,0L8.575,52.127c-0.999,0.363-1.659,1.317-1.647,2.379
		c0.003,0.198,0.035,0.39,0.082,0.577v56.625L152.501,160.667z M152.501,19.168l95.623,34.739l-95.623,32.162L56.877,53.907
		L152.501,19.168z"/>
</g>
<g>
</g>
<g>
</g>
<g>
</g>
<g>
</g>
<g>
</g>
<g>
</g>
<g>
</g>
<g>
</g>
<g>
</g>
<g>
</g>
<g>
</g>
<g>
</g>
<g>
</g>
<g>
</g>
<g>
</g>
</svg>
