<!DOCTYPE svg PUBLIC "-//W3C//DTD SVG 20010904//EN" "http://www.w3.org/TR/2001/REC-SVG-20010904/DTD/svg10.dtd">
<svg version="1.0" xmlns="http://www.w3.org/2000/svg" width="512px" height="512px" viewBox="0 0 5120 5120" preserveAspectRatio="xMidYMid meet">
<g id="layer101" fill="white" stroke="black" stroke-width="100">
 <path d="M771 3790 c-71 -17 -122 -75 -128 -147 -4 -42 -1 -53 21 -80 59 -70 69 -113 76 -313 7 -206 18 -247 79 -305 28 -26 40 -30 90 -30 51 0 64 5 115 40 113 78 218 138 225 127 4 -6 139 -15 356 -22 193 -6 360 -13 373 -16 22 -4 31 -37 12 -49 -23 -14 -405 -675 -480 -831 -84 -175 -117 -361 -86 -484 41 -159 160 -260 373 -317 91 -24 114 -26 318 -27 121 -1 246 3 278 7 l57 8 0 371 0 370 -22 -5 c-13 -2 -53 -13 -90 -23 -49 -13 -71 -15 -78 -8 -8 8 20 75 104 243 64 127 116 234 116 239 0 4 -32 27 -71 51 -39 24 -73 49 -75 56 -3 7 68 125 157 264 l161 251 1 143 c2 197 -23 297 -92 370 -54 59 -29 57 -665 57 l-584 0 -6 -27 c-3 -16 -8 -67 -12 -115 l-6 -88 -155 0 -156 0 -43 44 c-57 57 -57 82 1 172 l44 69 -52 7 c-69 8 -115 8 -156 -2z"/>
 <path d="M3048 3684 c-25 -38 -168 -260 -318 -494 -150 -234 -288 -449 -307 -477 l-33 -53 61 -37 c34 -21 73 -48 88 -61 70 -64 373 -199 593 -265 94 -29 114 -38 116 -56 5 -32 -25 -28 -189 27 -179 60 -340 128 -443 187 -44 25 -83 45 -88 45 -4 0 -51 -85 -103 -190 -54 -108 -90 -190 -83 -190 7 0 41 9 75 19 44 13 64 16 72 8 8 -8 11 -127 11 -374 l0 -364 38 7 c200 35 343 79 497 154 337 163 578 430 720 798 39 102 81 263 91 352 l6 59 -68 44 c-90 58 -116 71 -194 96 -86 29 -193 37 -272 22 -70 -14 -177 -66 -224 -109 -25 -23 -35 -26 -52 -19 -12 6 -22 13 -22 17 0 4 77 145 171 314 l171 306 -119 131 c-65 72 -125 140 -134 152 -16 20 -18 19 -61 -49z"/>
 <path d="M4156 3723 l-128 -4 7 -395 c4 -218 10 -419 14 -447 l6 -52 160 0 160 0 37 110 c54 162 70 252 71 395 1 142 -21 241 -75 342 l-31 58 -46 -2 c-25 -1 -104 -4 -175 -5z"/>
 <path d="M3513 3696 c-149 -6 -275 -14 -279 -18 -5 -5 157 -195 169 -198 8 -2 352 -28 353 -27 1 1 39 54 86 117 46 63 88 121 92 128 9 14 -22 14 -421 -2z"/>
 <path d="M3868 3524 l-93 -126 -85 6 c-47 4 -117 9 -156 13 l-72 6 -28 -49 c-39 -66 -44 -146 -14 -208 32 -66 121 -142 280 -237 77 -46 151 -91 164 -98 21 -13 29 -13 67 4 24 10 48 22 53 26 10 9 -4 789 -15 789 -4 0 -49 -57 -101 -126z"/>
 </g>

</svg>
